<svg width="663" height="357" viewBox="0 0 663 357" fill="none" xmlns="http://www.w3.org/2000/svg">
<path fill-rule="evenodd" clip-rule="evenodd" d="M1.03212 299.869C9.65241 299.869 16.6405 306.878 16.6405 315.522C16.6405 324.167 9.65241 331.175 1.03212 331.175C0.951934 331.175 0.87189 331.174 0.791991 331.173L0.791992 356.219L662.587 356.219L662.587 331.173C662.506 331.174 662.429 331.175 662.347 331.175C653.727 331.175 646.739 324.167 646.739 315.522C646.739 306.878 653.727 299.869 662.347 299.869C662.429 299.869 662.506 299.87 662.587 299.871L662.587 274.341C662.506 274.343 662.429 274.343 662.347 274.343C653.727 274.343 646.739 267.335 646.739 258.69C646.739 250.046 653.727 243.038 662.347 243.038L662.386 243.038L662.462 243.038L662.506 243.039L662.587 243.04L662.587 221.365C638.983 221.365 619.844 202.173 619.844 178.5C619.844 154.827 638.983 135.635 662.587 135.635L662.587 114.442C662.506 114.443 662.429 114.444 662.347 114.444C653.727 114.444 646.739 107.436 646.739 98.7911C646.739 90.1465 653.727 83.1383 662.347 83.1383C662.429 83.1383 662.506 83.1388 662.587 83.1403L662.587 57.6103C662.544 57.6108 662.506 57.6113 662.462 57.6118C662.424 57.6122 662.386 57.6122 662.347 57.6122C653.727 57.6122 646.739 50.6041 646.739 41.9594C646.739 33.3148 653.727 26.3066 662.347 26.3066C662.429 26.3066 662.506 26.3071 662.587 26.3086L662.587 0.78055L0.791977 0.780579L0.791978 26.3086C0.871877 26.3072 0.951921 26.3067 1.03211 26.3067C9.6524 26.3067 16.6405 33.3148 16.6405 41.9595C16.6405 50.6042 9.6524 57.6123 1.03211 57.6123C0.951922 57.6123 0.871878 57.6118 0.791979 57.6103L0.79198 83.1403C0.871879 83.1389 0.951923 83.1384 1.03211 83.1384C9.6524 83.1384 16.6405 90.1465 16.6405 98.7912C16.6405 107.436 9.6524 114.444 1.03211 114.444C0.951925 114.444 0.871881 114.443 0.791982 114.442L0.791983 135.635C24.3982 135.635 43.5349 154.827 43.5349 178.5C43.5349 202.173 24.3982 221.365 0.791986 221.365L0.791987 243.04C0.871886 243.038 0.95193 243.038 1.03212 243.038C9.65241 243.038 16.6405 250.046 16.6405 258.691C16.6405 267.335 9.65241 274.343 1.03212 274.343C0.951932 274.343 0.871888 274.343 0.791989 274.341L0.79199 299.871C0.871889 299.87 0.951933 299.869 1.03212 299.869Z" fill="#FFE72B"/>
</svg>
